# xmcd CD database file
#
# Track frame offsets:
#	150
#	14920
#	40296
#	66922
#	77562
#	106510
#	121941
#	142149
#	160868
#	180726
#	211818
#
# Disc length: 2976 seconds
#
# Revision: 0
# Processed by: cddbd v1.4PL0 Copyright (c) Steve Scherf et al.
# Submitted via: CDex 1.50beta10
#
DISCID=940b9e0b
DTITLE=Jen Shyu - For Now
DYEAR=2002
DGENRE=Jazz
TTITLE0=With Every Breath I Take
TTITLE1=Lover Man
TTITLE2=You Don't Know What Love Is
TTITLE3=Caravan
TTITLE4=Nature Boy
TTITLE5=The Way You Look Tonight
TTITLE6=If He Walked Into My Life
TTITLE7=Spring Flower Waiting For Dew
TTITLE8=Losing My Mind
TTITLE9=SummerTime
TTITLE10=Again
EXTD=YEAR: 2002
EXTT0=
EXTT1=
EXTT2=
EXTT3=
EXTT4=
EXTT5=
EXTT6=
EXTT7=
EXTT8=
EXTT9=
EXTT10=
PLAYORDER=
